<?xml version="1.0" standalone="no"?>
<!DOCTYPE svg PUBLIC "-//W3C//DTD SVG 20010904//EN"
 "http://www.w3.org/TR/2001/REC-SVG-20010904/DTD/svg10.dtd">
<svg version="1.0" xmlns="http://www.w3.org/2000/svg"
 width="512.000000pt" height="512.000000pt" viewBox="0 0 512.000000 512.000000"
 preserveAspectRatio="xMidYMid meet">

<g transform="translate(0.000000,512.000000) scale(0.100000,-0.100000)"
fill="#000000" stroke="none">
<path d="M1717 5106 c-93 -34 -112 -63 -302 -473 -24 -50 -51 -96 -62 -101
-10 -6 -115 -25 -233 -42 -118 -17 -233 -36 -255 -41 -133 -34 -209 -170 -171
-303 16 -53 31 -72 204 -252 103 -108 190 -203 193 -212 3 -9 -11 -120 -32
-247 -49 -288 -50 -338 -11 -408 51 -92 153 -140 249 -119 22 5 135 61 252
125 117 64 221 119 232 122 14 5 86 -30 239 -114 120 -66 238 -125 261 -131
129 -35 267 63 285 202 4 28 -9 129 -35 285 -23 133 -41 254 -41 269 0 22 36
64 184 213 100 102 191 201 201 220 43 84 27 204 -38 278 -52 59 -88 70 -344
108 -131 20 -247 40 -258 44 -14 6 -57 85 -135 251 -97 205 -121 248 -157 279
-66 58 -147 75 -226 47z m111 -173 c11 -10 68 -121 128 -247 59 -125 116 -239
127 -252 45 -58 91 -73 359 -114 220 -34 255 -42 271 -61 32 -40 22 -64 -72
-167 -49 -53 -131 -137 -181 -187 -104 -102 -140 -162 -140 -238 0 -27 18
-156 40 -287 43 -259 43 -282 -6 -300 -24 -10 -49 2 -241 106 -118 64 -233
123 -256 131 -79 28 -119 15 -355 -115 -120 -65 -225 -121 -235 -125 -19 -7
-56 7 -69 27 -13 20 -9 67 32 315 42 257 43 285 7 356 -11 22 -100 121 -197
220 -98 99 -181 190 -184 201 -8 26 10 70 33 80 9 3 124 23 256 44 133 20 257
45 276 54 67 31 96 75 210 316 61 129 118 241 127 248 22 17 46 15 70 -5z"/>
<path d="M3860 4934 c-56 -24 -69 -42 -140 -190 -77 -161 -53 -143 -230 -169
-58 -9 -119 -20 -137 -26 -41 -13 -89 -68 -102 -116 -13 -47 -13 -49 0 -98 9
-30 38 -67 122 -153 l111 -112 -23 -145 c-27 -168 -25 -220 13 -270 36 -46 79
-67 137 -67 41 0 68 10 178 71 71 39 132 71 136 71 4 0 62 -30 129 -67 66 -36
136 -70 156 -74 70 -16 158 30 186 98 19 44 17 97 -6 233 -11 63 -20 122 -20
131 0 9 49 68 109 132 117 123 139 164 127 230 -8 41 -41 93 -76 119 -23 17
-134 41 -283 63 l-48 6 -68 142 c-72 150 -84 167 -144 192 -45 19 -82 19 -127
-1z m234 -469 c30 -23 60 -31 184 -52 81 -14 149 -27 151 -29 3 -2 -45 -55
-106 -117 -144 -145 -144 -145 -109 -350 14 -83 24 -152 23 -153 -1 0 -60 31
-132 70 -175 95 -184 95 -359 -2 -72 -39 -131 -70 -132 -69 -2 2 8 71 22 155
34 205 35 203 -112 352 l-115 117 113 17 c244 36 248 39 339 231 l64 135 66
-138 c51 -108 74 -145 103 -167z"/>
<path d="M3158 3485 c-25 -8 -67 -34 -92 -58 -41 -37 -64 -79 -189 -342 -118
-247 -148 -302 -173 -316 -18 -11 -140 -34 -331 -63 -326 -49 -351 -56 -414
-123 -52 -54 -71 -98 -77 -174 -9 -125 5 -147 217 -364 296 -302 291 -295 291
-352 0 -87 -4 -91 -63 -80 -77 14 -325 1 -442 -23 -230 -48 -478 -153 -689
-290 -188 -123 -329 -238 -541 -440 -139 -133 -327 -297 -515 -449 -119 -97
-139 -120 -140 -159 0 -29 51 -82 80 -82 34 0 55 14 230 159 218 180 314 264
440 386 353 343 655 545 976 654 163 55 279 75 449 75 166 1 223 -14 325 -82
128 -87 85 -82 625 -82 445 0 483 -2 520 -19 133 -61 142 -235 15 -299 -44
-22 -46 -22 -538 -22 -520 0 -539 -2 -556 -45 -13 -35 -6 -76 19 -101 l25 -25
532 3 533 3 47 23 c112 55 185 156 195 272 l6 60 378 318 c209 174 394 323
411 331 43 17 122 9 156 -16 50 -37 72 -81 72 -142 -1 -31 -7 -67 -14 -80 -7
-13 -262 -278 -566 -587 -414 -423 -564 -569 -598 -586 l-47 -23 -875 -5
c-996 -6 -891 3 -1155 -102 -82 -33 -164 -66 -181 -74 -32 -15 -54 -50 -54
-85 0 -27 53 -79 80 -79 11 0 100 31 197 70 96 38 208 76 249 85 62 13 200 15
901 15 898 0 879 -1 983 56 38 21 193 172 601 585 302 306 565 576 584 600 46
58 69 129 69 209 0 100 -26 163 -98 236 -74 74 -142 104 -241 104 -116 0 -152
-20 -414 -240 -139 -116 -239 -193 -242 -186 -4 6 -12 47 -18 91 -10 61 -10
87 -1 110 6 17 111 131 234 255 253 256 269 280 270 395 0 58 -5 81 -27 128
-34 68 -94 122 -157 141 -25 7 -175 33 -335 57 -264 40 -292 46 -317 69 -17
15 -80 136 -162 308 -74 156 -146 298 -159 315 -58 76 -190 114 -289 82z m147
-185 c11 -11 81 -148 155 -306 144 -305 173 -350 255 -388 25 -12 154 -37 345
-67 168 -26 313 -50 322 -54 45 -18 66 -112 35 -157 -8 -13 -111 -121 -228
-242 -129 -131 -223 -237 -238 -264 -34 -66 -36 -135 -8 -293 l24 -137 -48
-41 c-26 -23 -50 -41 -53 -41 -3 0 -24 18 -47 40 -22 22 -66 52 -97 67 l-57
28 -500 5 -500 5 -61 43 -61 44 8 41 c5 23 8 74 8 112 1 119 -17 145 -274 404
-141 143 -226 236 -230 254 -11 40 2 91 29 116 20 19 64 28 317 67 162 24 310
49 330 54 44 12 110 59 141 100 12 17 84 160 158 318 124 261 139 289 171 305
38 20 73 15 104 -13z"/>
</g>
</svg>
