<?xml version="1.0" standalone="no"?>
<!DOCTYPE svg PUBLIC "-//W3C//DTD SVG 20010904//EN"
 "http://www.w3.org/TR/2001/REC-SVG-20010904/DTD/svg10.dtd">
<svg version="1.0" xmlns="http://www.w3.org/2000/svg"
 width="512.000000pt" height="512.000000pt" viewBox="0 0 512.000000 512.000000"
 preserveAspectRatio="xMidYMid meet">

<g transform="translate(0.000000,512.000000) scale(0.100000,-0.100000)"
fill="#000000" stroke="none">
<path d="M2877 5106 c-37 -14 -141 -88 -155 -111 -4 -7 -23 -31 -44 -54 l-36
-42 -50 25 c-165 84 -328 127 -473 127 -173 0 -287 -48 -399 -168 l-69 -74
-63 17 c-97 25 -245 16 -321 -19 -68 -31 -107 -62 -154 -120 -57 -72 -36 -147
41 -147 29 0 41 8 77 52 29 34 62 60 98 76 48 22 63 24 140 19 52 -3 108 -13
141 -26 92 -35 127 -26 161 41 29 57 114 139 174 168 45 22 63 25 175 25 139
0 206 -16 353 -82 l77 -36 -37 -46 c-64 -80 -117 -132 -163 -158 -70 -41 -90
-62 -90 -99 0 -39 32 -74 67 -74 78 0 208 111 360 308 155 201 218 262 272
262 39 0 55 -76 40 -185 -23 -172 -23 -161 0 -184 16 -16 32 -21 59 -19 41 3
46 10 120 146 49 90 118 167 185 206 56 33 134 44 162 23 30 -23 24 -112 -15
-223 -46 -130 -46 -138 -17 -168 49 -49 74 -38 184 75 148 153 253 212 293
164 22 -26 4 -104 -50 -210 -136 -272 -459 -598 -715 -721 -402 -195 -1006
-128 -1317 146 -59 51 -87 58 -122 28 -19 -16 -32 -44 -45 -93 -51 -193 -134
-317 -249 -367 -24 -11 -84 -23 -133 -28 -48 -5 -92 -11 -97 -14 -15 -9 -74
300 -92 489 -6 60 -10 158 -9 217 3 92 1 110 -15 127 -26 29 -86 28 -112 0
-51 -56 -17 -495 65 -838 20 -82 20 -85 2 -110 -91 -129 -93 -282 -6 -403 36
-49 97 -95 155 -118 19 -7 36 -14 38 -16 2 -1 7 -58 12 -126 5 -67 16 -145 24
-173 8 -27 14 -50 12 -52 -1 -2 -88 15 -192 38 -140 30 -203 40 -244 36 -106
-9 -196 -71 -247 -170 -22 -44 -27 -68 -31 -160 l-5 -107 -47 0 c-103 0 -192
-55 -245 -151 -28 -52 -30 -61 -33 -201 -3 -120 -1 -157 13 -203 35 -109 134
-187 257 -201 l57 -6 3 -432 c3 -425 3 -432 26 -481 29 -64 90 -126 150 -154
27 -12 380 -93 810 -186 l764 -165 210 0 209 0 767 166 c520 113 781 174 812
189 109 56 162 149 168 295 4 86 2 98 -18 122 -12 16 -30 28 -41 28 -17 0 -19
8 -19 74 0 73 0 74 31 86 17 7 35 24 40 37 5 13 9 113 9 222 l0 198 58 7 c123
14 222 92 257 201 14 46 16 83 13 203 -3 140 -5 149 -33 201 -53 96 -142 151
-246 151 l-47 0 -4 103 c-5 129 -29 187 -103 255 -57 52 -129 82 -197 82 -21
0 -132 -20 -245 -45 -114 -25 -208 -44 -209 -42 -1 1 6 34 16 72 10 39 21 120
25 181 l7 110 51 18 c71 25 157 112 185 189 29 77 29 167 0 244 -28 77 -112
161 -188 190 l-55 20 -7 119 c-4 65 -15 190 -23 277 l-16 159 23 28 c166 202
237 303 289 414 76 162 77 280 5 356 -82 88 -202 84 -342 -10 l-32 -20 -7 47
c-10 69 -27 104 -68 140 -100 88 -285 61 -424 -62 -28 -25 -53 -45 -56 -45 -3
0 -8 12 -12 28 -25 100 -148 157 -258 118z m747 -1163 c30 -156 46 -1157 19
-1269 -13 -53 -47 -150 -61 -172 -5 -6 -194 -53 -421 -102 l-413 -90 -187 0
-186 0 -434 95 c-251 54 -438 99 -443 107 -17 27 -50 125 -60 178 -6 30 -11
206 -12 389 l-1 335 38 8 c20 4 56 17 80 29 137 70 212 162 303 376 9 21 11
21 89 -28 370 -229 969 -252 1360 -51 84 44 264 169 294 205 19 24 29 21 35
-10z m-2359 -881 c-3 -4 -23 12 -45 33 -78 80 -77 181 4 260 l41 40 3 -164 c1
-90 0 -166 -3 -169z m2585 308 c37 -26 70 -96 70 -146 -1 -53 -31 -116 -69
-143 l-31 -22 0 59 c0 32 -3 107 -7 165 -3 59 -3 107 1 107 5 0 21 -9 36 -20z
m-3144 -1359 c51 -31 64 -73 64 -205 0 -189 -27 -226 -167 -226 -151 0 -176
29 -181 207 -4 109 -2 127 17 167 29 58 65 75 161 76 56 0 83 -5 106 -19z
m3921 2 c56 -26 73 -75 73 -211 0 -183 -30 -222 -175 -222 -146 0 -175 38
-175 227 0 136 13 174 71 205 44 24 157 25 206 1z"/>
<path d="M1950 3317 c-36 -18 -70 -91 -70 -151 0 -104 71 -186 135 -155 99 48
110 227 19 298 -31 24 -49 26 -84 8z"/>
<path d="M3048 3310 c-85 -67 -75 -253 16 -297 32 -15 36 -15 66 3 46 27 70
77 70 147 0 69 -18 116 -55 145 -34 27 -65 28 -97 2z"/>
<path d="M2240 2773 c-27 -34 -22 -67 19 -127 108 -157 334 -193 487 -77 58
43 114 122 114 160 0 40 -39 73 -81 69 -27 -2 -41 -13 -71 -53 -43 -57 -90
-85 -152 -92 -57 -7 -125 23 -162 72 -51 66 -63 75 -98 75 -26 0 -40 -7 -56
-27z"/>
</g>
</svg>
