<?xml version="1.0" standalone="no"?>
<!DOCTYPE svg PUBLIC "-//W3C//DTD SVG 20010904//EN"
 "http://www.w3.org/TR/2001/REC-SVG-20010904/DTD/svg10.dtd">
<svg version="1.0" xmlns="http://www.w3.org/2000/svg"
 width="512.000000pt" height="512.000000pt" viewBox="0 0 512.000000 512.000000"
 preserveAspectRatio="xMidYMid meet">

<g transform="translate(0.000000,512.000000) scale(0.100000,-0.100000)"
fill="#000000" stroke="none">
<path d="M2410 5114 c-565 -50 -978 -204 -1410 -528 -110 -82 -350 -317 -436
-426 -246 -312 -420 -677 -503 -1056 -76 -344 -74 -759 5 -1108 216 -958 976
-1717 1934 -1930 326 -72 700 -80 1022 -21 842 155 1569 741 1897 1528 201
484 249 1031 135 1547 -229 1037 -1102 1836 -2158 1975 -119 15 -401 26 -486
19z m229 -1050 c64 -19 130 -76 163 -142 l23 -47 0 -635 0 -635 -29 -58 c-98
-200 -385 -193 -480 12 -21 45 -21 55 -21 681 l0 635 22 45 c32 65 92 119 155
141 66 23 100 23 167 3z m784 -295 c69 -19 228 -166 342 -318 300 -397 382
-923 219 -1394 -178 -511 -592 -872 -1134 -988 -151 -33 -429 -33 -580 0 -151
32 -268 74 -401 142 -411 213 -692 586 -790 1049 -18 85 -22 138 -23 280 0
205 16 306 74 481 84 253 238 488 430 654 85 74 127 95 190 95 154 0 255 -165
184 -302 -9 -16 -56 -69 -106 -116 -111 -106 -173 -186 -232 -300 -92 -180
-132 -357 -123 -552 35 -706 714 -1191 1393 -994 295 85 532 286 670 569 176
362 143 766 -89 1103 -28 40 -94 115 -148 166 -121 115 -144 151 -143 226 1
143 128 238 267 199z"/>
</g>
</svg>
