<?xml version="1.0" standalone="no"?>
<!DOCTYPE svg PUBLIC "-//W3C//DTD SVG 20010904//EN"
 "http://www.w3.org/TR/2001/REC-SVG-20010904/DTD/svg10.dtd">
<svg version="1.0" xmlns="http://www.w3.org/2000/svg"
 width="512.000000pt" height="512.000000pt" viewBox="0 0 512.000000 512.000000"
 preserveAspectRatio="xMidYMid meet">

<g transform="translate(0.000000,512.000000) scale(0.100000,-0.100000)"
fill="#000000" stroke="none">
<path d="M1135 4624 c-11 -2 -45 -9 -75 -15 -127 -26 -279 -121 -363 -228
-191 -243 -194 -575 -9 -817 l40 -51 -29 -17 c-176 -104 -341 -323 -393 -521
-9 -33 -80 -420 -158 -860 -130 -726 -143 -811 -142 -915 0 -91 4 -130 23
-190 46 -148 84 -198 141 -187 24 5 37 -4 100 -66 66 -65 73 -76 71 -107 -3
-43 22 -69 92 -99 92 -40 168 -55 277 -55 185 0 328 56 458 180 129 121 178
222 218 450 14 82 31 163 39 180 18 45 72 102 119 127 l41 22 975 0 975 0 41
-22 c58 -31 112 -98 128 -158 8 -27 25 -112 39 -188 33 -177 78 -276 173 -377
115 -122 242 -188 405 -211 145 -20 315 15 447 93 77 45 209 178 255 258 21
36 49 101 64 145 22 69 26 98 26 205 1 117 -7 172 -136 895 -76 424 -145 802
-154 840 -22 96 -72 210 -127 293 -91 138 -274 285 -419 339 -43 16 -50 16
-75 3 -32 -18 -47 -57 -38 -93 5 -21 25 -36 99 -72 195 -95 345 -269 401 -466
13 -47 284 -1568 301 -1690 7 -52 -8 -156 -31 -227 -56 -165 -215 -311 -390
-357 -76 -20 -206 -19 -275 1 -130 38 -245 126 -308 237 -33 58 -55 138 -90
325 -12 63 -31 133 -42 155 -50 99 -133 172 -236 208 -54 18 -92 19 -984 19
l-929 0 -45 58 c-60 75 -137 202 -180 297 -19 42 -35 80 -35 84 0 5 30 26 66
47 89 52 184 154 228 246 108 225 54 492 -132 658 -31 28 -60 50 -64 50 -4 0
-8 73 -8 163 l0 162 40 23 c22 12 55 36 74 52 l34 30 1120 0 c1072 0 1121 1
1142 18 30 24 29 76 -1 108 l-22 24 -1059 0 -1058 0 19 38 c61 120 85 300 57
432 -28 132 -115 280 -217 369 -105 90 -254 149 -398 156 -47 2 -95 2 -106 -1z
m210 -166 c236 -60 403 -315 367 -560 -61 -416 -566 -583 -863 -285 -197 197
-194 513 6 713 128 129 310 178 490 132z m5 -1463 c0 -300 -1 -322 -20 -352
-28 -46 -65 -67 -120 -67 -55 0 -92 21 -120 67 -19 30 -20 52 -20 352 l0 320
140 0 140 0 0 -320z m-401 -410 c109 -222 424 -215 527 10 18 38 26 80 32 156
l7 104 37 -59 c46 -73 61 -139 57 -242 -3 -65 -10 -92 -36 -144 -41 -83 -110
-152 -193 -193 -60 -30 -72 -32 -170 -32 -99 0 -109 2 -172 33 -228 112 -302
400 -156 605 l23 32 6 -103 c6 -88 11 -112 38 -167z"/>
<path d="M1882 3227 c-19 -20 -22 -35 -22 -109 0 -104 4 -117 43 -133 36 -15
82 -3 97 25 6 10 10 59 10 108 0 80 -2 91 -23 110 -31 29 -77 29 -105 -1z"/>
<path d="M3132 3227 c-19 -20 -22 -35 -22 -109 0 -104 4 -117 43 -133 36 -15
82 -3 97 25 6 10 10 59 10 108 0 80 -2 91 -23 110 -31 29 -77 29 -105 -1z"/>
<path d="M3911 3219 c-66 -26 -137 -95 -171 -164 -34 -71 -34 -189 0 -260 31
-64 98 -130 158 -158 72 -33 199 -31 268 5 67 35 138 115 159 179 23 69 17
178 -13 240 -29 59 -92 122 -151 150 -68 32 -179 36 -250 8z m206 -160 c39
-25 73 -85 73 -130 0 -47 -36 -115 -74 -138 -53 -33 -104 -36 -156 -9 -61 31
-90 77 -90 143 0 66 29 112 90 143 52 27 104 24 157 -9z"/>
<path d="M2364 3125 c-58 -24 -61 -85 -6 -137 54 -54 124 -82 202 -82 146 0
275 109 230 194 -23 42 -102 41 -138 -3 -20 -24 -78 -40 -117 -33 -19 4 -47
18 -63 31 -44 37 -73 45 -108 30z"/>
<path d="M2235 2611 c-22 -10 -52 -31 -67 -47 -48 -51 -58 -92 -58 -226 0
-136 13 -180 66 -230 56 -53 92 -58 384 -58 292 0 328 5 384 58 53 50 66 93
66 232 0 139 -13 182 -66 232 -59 55 -78 58 -386 58 -254 0 -287 -2 -323 -19z
m615 -160 c5 -11 10 -59 10 -108 0 -142 20 -133 -300 -133 -320 0 -300 -9
-300 133 0 138 -26 127 300 127 266 0 280 -1 290 -19z"/>
<path d="M3493 2532 c-266 -95 -287 -451 -33 -583 38 -20 60 -24 135 -24 75 0
97 4 135 24 191 99 238 336 99 494 -80 92 -223 130 -336 89z m187 -165 c149
-99 45 -335 -126 -287 -104 29 -150 154 -89 246 42 65 150 86 215 41z"/>
</g>
</svg>
